<?xml version="1.0" encoding="UTF-8"?>
<svg width="1440px" height="411px" viewBox="0 0 1440 411" version="1.1" xmlns="http://www.w3.org/2000/svg" xmlns:xlink="http://www.w3.org/1999/xlink">
    <!-- Generator: Sketch 41 (35326) - http://www.bohemiancoding.com/sketch -->
    <title>Bg Services</title>
    <desc>Created with Sketch.</desc>
    <defs/>
    <g id="Symbols" stroke="none" stroke-width="1" fill="none" fill-rule="evenodd" opacity="0.0700000003">
        <g id="Desktop-/-Footer" stroke-width="2" stroke="#EBEBEB">
            <g id="BG">
                <g>
                    <g id="pattern---topography" transform="translate(0.000000, -382.000000)">
                        <path d="M7.03878116,72.9913693 L48.7379824,36.8460527 C83.1543502,7.01312555 131.800472,-0.361292702 173.590428,17.9182619 C192.280166,26.0933045 207.980866,39.8035566 218.549755,57.1769874 C229.065606,74.4625019 233.995868,94.5402377 232.673431,114.700029 C230.452868,148.556005 221.007226,181.552746 204.962362,211.49469 L179.309203,259.366867 C159.72959,295.906049 152.011837,337.580714 157.219081,378.659892 C160.360164,403.439391 181.549803,422.024895 206.663144,422.024895 C212.708402,422.024895 218.702979,420.930044 224.354571,418.796609 L258.017786,406.081569 C277.039901,398.898222 297.411562,395.945407 317.703075,397.428262 C337.723501,398.893533 357.187607,404.642086 374.765885,414.281228 L382.825444,418.700487 C423.432043,440.969097 459.054162,471.227538 487.523099,507.629571 C492.293066,513.728617 495.658091,520.795914 497.378909,528.329754 C503.521995,555.208694 529.43092,572.855251 556.848507,568.836891 C581.366633,565.242873 606.220673,564.494998 630.912059,566.607333 L669.168445,569.880164 C674.564271,570.342017 679.977778,569.228411 684.745387,566.67415 C691.778349,562.907816 700.098388,562.329913 707.589841,565.084623 C715.081294,567.840506 721.020475,573.665253 723.896363,581.074838 C729.437163,595.352443 738.357131,608.090927 749.899579,618.210678 C782.364114,646.675628 825.1017,660.731684 868.229416,657.125944 L906.89597,653.895313 C907.501792,653.844908 908.104078,653.788642 908.707544,653.727686 C945.290257,650.00238 980.979559,666.535331 1001.65059,696.784395 C1012.21477,712.242423 1020.98741,728.839846 1027.79761,746.258994 L1028.58376,748.268174 C1037.94218,772.202504 1042.74515,797.659544 1042.74515,823.340478 C1042.74515,839.048189 1039.65122,854.60351 1033.6366,869.128454 C1023.21976,894.288923 1021.68988,922.218169 1029.29684,948.355096 L1032.39549,959" id="Stroke-1"/>
                        <path d="M7.03878116,121.364286 L66.0872632,67.1428358 C91.4585171,43.8451244 130.698181,44.3550109 155.450078,68.3009229 C168.043273,80.4831082 175.148213,97.2191076 175.148213,114.698252 C175.148213,140.339097 169.798902,165.702142 159.438217,189.178021 L134.065786,246.670949 C116.279886,286.976599 110.483131,331.514894 117.365526,375.001767 C123.288272,412.42861 154.528108,440.740792 192.514929,443.106196 C204.214412,443.834103 215.932736,442.033676 226.865678,437.826819 L268.993711,421.617117 C283.574498,416.006021 299.189118,413.558565 314.795494,414.43768 C330.586736,415.328516 345.998828,419.602186 359.976744,426.970339 L379.471174,437.243087 C413.13074,454.98245 442.938754,479.167481 467.183156,508.406835 C473.778245,516.359893 478.468165,525.704296 480.89967,535.728548 C489.414059,570.845077 524.032097,593.199205 559.714581,586.621083 C581.855996,582.538475 604.536698,582.273568 626.767601,585.835741 L649.801549,589.528022 C656.313037,590.571239 662.978776,590.11996 669.288914,588.208178 C689.25787,582.158697 710.721053,591.153799 720.329325,609.601141 C725.998912,620.484581 733.805633,630.124367 743.286736,637.948487 C777.721087,666.362646 822.407793,679.371199 866.794241,673.89959 L877.857883,672.536376 C887.037551,671.405248 896.264318,670.660931 905.507569,670.305769 C943.394304,668.851127 978.951974,688.482344 997.775238,721.24519 C1000.40221,725.816587 1002.66651,730.584905 1004.54695,735.506775 L1007.45769,743.116392 C1018.82041,772.837501 1024.64543,804.371931 1024.64543,836.173612 C1024.64543,849.273593 1021.63225,862.200095 1015.83785,873.96265 C1006.73118,892.448674 1004.60347,913.579074 1009.84445,933.496297 L1016.55493,959" id="Stroke-3"/>
                        <path d="M7.03878116,189.431646 L87.8283816,120.616184 C95.5425006,114.045651 107.061812,114.544679 114.170023,121.759496 C119.138699,126.800145 120.91752,134.147334 118.803917,140.884209 L104.647613,185.979451 C83.1756267,254.3732 80.7661434,327.274598 97.6714277,396.922945 C107.858686,438.895164 145.651267,468.470174 189.09977,468.470174 C200.820657,468.470174 212.438987,466.293663 223.354749,462.050755 L280.02476,440.026762 C287.59035,437.086481 295.550839,435.269598 303.64925,434.633513 C319.754124,433.369544 335.879037,436.817053 350.035341,444.550812 L395.209618,469.231601 C409.937644,477.278131 423.330081,487.5328 434.913048,499.635981 C452.994782,518.528751 466.233974,541.4688 473.51547,566.517418 L475.251854,572.492865 C482.558106,597.631683 484.161285,624.069612 479.94351,649.899571 C478.472358,658.912528 476.300993,667.798971 473.449457,676.479243 L471.770835,681.585492 C466.281126,698.294722 466.125523,716.280808 471.327603,733.080239 C472.995616,738.46763 478.003192,742.142396 483.674437,742.142396 C488.811682,742.142396 493.462079,739.117772 495.515562,734.439094 L510.145747,701.122547 C512.511615,695.733984 513.73286,689.919022 513.73286,684.039631 C513.73286,665.391689 525.907588,648.898001 543.807786,643.298581 L546.620422,642.41884 C556.98568,639.175159 566.576461,633.861568 574.801004,626.803722 C592.056394,611.993374 614.867506,605.231899 637.46879,608.226066 L648.188869,609.647006 C653.302538,610.324091 658.498723,610.004291 663.488617,608.706351 C681.228498,604.088587 699.841875,612.151517 708.513186,628.209434 C711.827994,634.34771 716.302748,639.792501 721.692258,644.246266 L729.589092,650.771112 C770.048138,684.200116 823.649712,697.447781 875.154188,686.746798 C886.713578,684.344202 898.608929,683.992774 910.292094,685.706571 C942.19653,690.386421 969.836039,710.147218 984.440291,738.719487 C985.606132,741.001426 986.682383,743.326708 987.666688,745.689476 C1000.89763,777.466768 1006.47103,811.877428 1003.94013,846.174459 L1003.89298,846.822258 C1003.19748,856.244043 1000.65126,865.439742 996.399297,873.889243 C987.047814,892.477442 986.188463,914.161722 994.041681,933.42232 L1002.83912,955" id="Stroke-5"/>
                        <path d="M1438.92798,455.560611 C1402.19624,443.012469 1361.8549,446.341759 1327.71003,464.739605 C1313.6798,472.2985 1298.56434,477.665222 1282.89091,480.653377 L1276.68737,481.835041 C1247.27508,487.442081 1216.91439,485.576975 1188.42101,476.415566 C1169.43998,470.313821 1151.64326,461.046906 1135.79054,449.012225 C1109.08899,428.74224 1077.10516,416.496548 1043.62087,413.722921 L1026.39155,412.29625 C1014.45276,411.308014 1002.63783,409.17211 991.113083,405.917846 C951.943096,394.859679 919.89085,366.817443 903.888319,329.607936 C890.127038,297.612753 859.444314,276.014569 824.507932,273.730958 C816.872344,273.231564 809.203728,273.671171 801.676664,275.039228 L787.097917,277.689765 C755.902064,283.360109 723.704726,279.332137 694.897575,266.153306 C686.915183,262.501637 680.730511,255.832506 677.718977,247.627681 C673.396902,235.852076 676.217339,222.656833 684.984169,213.645476 C692.586728,205.828677 702.764366,200.987139 713.660384,200.004764 L755.026797,196.274552 C776.397713,194.34966 797.865358,198.722284 816.749665,208.852001 C832.957448,217.544496 853.072084,213.810768 865.029747,199.88988 C872.061377,191.704984 875.358375,180.985608 874.136303,170.290849 L874.044294,169.492523 C872.383409,154.959702 871.550608,140.345994 871.550608,125.721735 C871.550608,106.588867 867.249765,87.6986619 858.963035,70.4308997 C848.929309,49.5231917 844.771199,26.307254 846.929877,3.24371337 L847.234216,0" id="Stroke-9"/>
                        <path d="M1440.93906,487.107604 C1407.22151,469.249076 1366.73193,469.37902 1333.13108,487.452951 C1325.81209,491.391076 1318.27032,494.903077 1310.5423,497.972567 L1297.37661,503.203108 C1288.52051,506.720963 1280.65104,512.310899 1274.4342,519.496454 C1261.51134,534.43768 1241.92018,541.967411 1222.23589,539.557008 C1200.05615,536.84106 1179.3817,526.988724 1163.37164,511.503138 L1146.27475,494.966293 C1106.69989,456.688987 1053.6399,435.268119 998.395649,435.268119 C986.283784,435.268119 974.216711,433.793078 962.465549,430.874605 C928.412051,422.421217 900.617825,398.063144 887.931898,365.559569 C873.001592,327.306847 835.937515,302.095358 794.627506,302.095358 C790.524207,302.095358 786.424443,302.34588 782.35297,302.845755 L758.92373,305.722085 C726.788092,309.666062 694.498035,299.682612 670.297879,278.317936 C663.324273,272.161397 655.414724,267.139235 646.861566,263.437585 C634.016505,257.876916 627.021681,243.982266 630.251512,230.439988 C631.875858,223.626705 635.94851,217.636401 641.703267,213.591745 C673.952067,190.927628 712.486071,178.75503 751.993739,178.75503 C770.284719,178.75503 788.548588,180.107151 806.636819,182.802027 L809.095734,183.169617 C823.662979,185.338863 838.003899,178.049118 844.750002,165.043005 C847.383375,159.964651 848.69181,154.31267 848.556252,148.602155 C848.100067,129.488671 843.18931,110.739265 834.209437,93.8278066 C819.241411,65.6381401 815.268955,32.9554528 823.051197,2.03813162 L823.565141,0" id="Stroke-11"/>
                        <path d="M794.051989,0 L792.492924,13.5127998 C789.370081,40.5630042 792.164142,67.9647078 800.681846,93.8409051 C802.821877,100.344811 803.206046,107.291607 801.796642,113.988837 C798.263704,130.774095 784.129595,143.30504 766.952776,144.877413 L746.080395,146.789568 C733.706864,147.922567 721.480636,150.288157 709.58319,153.85353 C675.449919,164.077469 645.00396,183.864529 621.885488,210.845605 L604.612038,231.006426 C598.664493,237.948535 596.154434,247.173045 597.771242,256.149162 C599.551852,266.03449 606.11336,274.411887 615.315732,278.550204 L622.422853,281.747675 C633.039343,286.522205 643.054834,292.524639 652.259563,299.628437 C682.08331,322.641088 719.604572,333.495382 757.190649,329.982734 L793.663107,326.573192 C800.473263,325.936979 807.343519,326.418533 813.996944,328.000279 C833.653184,332.674046 849.813016,346.531315 857.349086,365.178346 L864.748458,383.491453 C878.103624,416.540576 905.510408,442.000833 939.578866,453.010959 C951.649541,456.911428 964.263472,458.897398 976.956359,458.897398 L983.21501,458.897398 C1038.17352,458.897398 1086.18047,495.843476 1099.95752,548.742929 C1101.74873,555.624111 1104.15273,562.333059 1107.14006,568.79127 L1128.64997,615.28758 C1136.86481,633.047662 1143.95544,651.301014 1149.87824,669.941015 L1161.53057,706.612923 C1170.24271,734.034545 1181.4767,760.599681 1195.08641,785.973234 L1218.66682,829.934064 C1227.4921,846.386568 1241.06292,859.838441 1257.63756,868.561479 C1278.19294,879.381795 1303.61524,873.638299 1317.45003,855.048679 C1323.44236,846.998177 1326.67597,837.248761 1326.67597,827.233378 L1326.67597,790.921171 C1326.67597,758.111066 1323.21138,725.392352 1316.33759,693.302821 L1308.75438,657.899825 C1306.93017,649.377142 1303.24757,641.357102 1297.96466,634.403277 C1282.79118,614.422892 1281.79658,587.14187 1295.477,566.12222 L1302.89051,554.731303 C1315.45848,535.418767 1333.57333,520.30899 1354.88645,511.360992 C1359.99495,509.216848 1364.49891,505.865889 1368.00946,501.597517 C1378.04734,489.392294 1395.22887,485.686321 1409.45372,492.658893 L1440.93906,508.096737" id="Stroke-13"/>
                        <path d="M1446.9723,522.554236 L1404.51623,535.601977 C1400.23291,536.919292 1395.57122,535.616041 1392.60331,532.273532 C1390.42746,529.821733 1387.29335,528.423551 1384.00601,528.437615 C1380.71749,528.452851 1377.59635,529.877988 1375.4429,532.348539 L1368.39085,540.438771 C1363.54176,546.004542 1356.12904,548.659094 1348.8224,547.448431 C1343.68453,546.597567 1338.4288,548.036769 1334.45429,551.385138 C1330.4786,554.733507 1328.18724,559.651168 1328.18724,564.831355 C1328.18724,570.827245 1325.12032,576.411767 1320.04728,579.654658 C1312.29392,584.610994 1306.90735,592.494957 1305.13107,601.488792 C1303.3548,610.482627 1305.34324,619.808134 1310.63551,627.311201 C1327.20069,650.794322 1337.94907,677.839114 1342.00373,706.237553 C1344.78542,725.713647 1345.75901,745.401871 1344.91272,765.054936 L1342.18172,828.5005 C1341.52519,843.744546 1336.54291,858.494014 1327.81242,871.042488 C1314.25406,890.526787 1290.78653,900.720737 1267.19524,897.370024 C1255.31061,895.681189 1244.15911,890.645157 1235.06088,882.857298 C1220.81771,870.66628 1209.34561,855.601548 1201.40838,838.662807 L1165.20521,761.398334 C1160.47516,751.30283 1156.10697,741.042077 1152.11124,730.637168 L1134.43575,684.606172 C1125.03578,660.128033 1113.58843,636.476146 1100.21395,613.898971 L1096.74037,608.036688 C1086.68269,591.0581 1078.373,573.116137 1071.9374,554.479186 C1056.73125,510.448773 1015.08022,480.881863 968.259492,480.881863 C963.444583,480.881863 958.635567,481.197128 953.863089,481.826485 C900.834257,488.810361 850.471599,456.750633 834.654887,405.94027 L831.16835,394.741926 C828.394915,385.833646 823.479817,377.731694 816.848561,371.13809 C806.028275,360.379241 791.352525,354.334128 776.049717,354.334128 L746.349327,354.334128 C712.128698,354.334128 678.743754,343.819052 650.765416,324.228103 C636.9171,314.529903 621.655546,306.997537 605.513517,301.890014 L584.696842,295.304614 C575.710582,292.461372 568.514738,285.704861 565.14607,276.945424 C561.203384,266.691702 563.045661,255.126526 569.981017,246.585078 L586.832611,225.829173 C620.578232,184.268138 662.387205,149.883186 709.772516,124.718262 C714.695864,122.104729 719.67461,119.591987 724.705218,117.184724 L731.611107,113.877374 C752.958188,103.65764 767.80249,83.5580479 771.220663,60.247209 C771.774643,56.4769239 772.020987,52.6691353 771.957338,48.8590027 L771.1523,0" id="Stroke-15"/>
                        <path d="M753.162723,0 L747.21282,45.1134692 C746.384219,51.3961892 744.728194,57.5441373 742.287178,63.3991026 C734.849799,81.230027 720.549053,95.3611664 702.569691,102.644715 C672.935687,114.648801 645.637797,131.709766 621.910085,153.056483 L581.824855,189.120304 C565.079556,204.1843 551.676952,222.555484 542.471576,243.05841 C536.267081,256.878988 536.476884,272.709427 543.044407,286.363591 C549.083888,298.918483 559.967684,308.517767 573.22767,312.979307 L585.983186,317.273261 C602.5564,322.850478 618.199646,330.853593 632.399028,341.017747 C662.354808,362.462905 698.333568,374.001734 735.24701,374.001734 L765.803909,374.001734 C781.172527,374.001734 795.746724,380.789556 805.586222,392.527613 C810.181838,398.012249 813.581109,404.386379 815.56716,411.245689 L821.591319,432.053317 C835.836669,481.254481 885.486768,511.517245 936.046797,501.814831 C944.867929,500.122564 953.876468,499.626837 962.830789,500.338199 C1009.15823,504.023921 1048.72131,535.026173 1063.15053,578.952477 C1065.86029,587.199352 1069.26781,595.203639 1073.33538,602.879784 L1097.86341,649.159324 C1106.22604,664.937026 1113.6752,681.176469 1120.17672,697.797961 L1150.07003,774.228932 C1153.03084,781.796088 1156.18848,789.285896 1159.53825,796.691326 L1182.99133,848.50941 C1190.91432,866.016882 1202.40159,881.703173 1216.72709,894.576831 C1233.05043,909.245886 1253.49674,918.596721 1275.32208,921.371853 C1302.53393,924.832564 1329.57251,913.830479 1346.53705,892.394696 C1356.83033,879.387438 1362.67062,863.449182 1363.20337,846.906209 L1366.09464,757.226562 C1366.62032,740.948446 1366.2903,724.653923 1365.11045,708.408621 L1365.08334,708.053526 C1362.70126,675.278142 1354.70048,643.148492 1341.42989,613.053314 C1337.9599,605.186144 1338.89929,596.08493 1343.90391,589.081473 C1346.57123,585.350046 1350.23805,582.436626 1354.48832,580.676387 C1378.78179,570.611846 1404.58396,564.616249 1430.8458,562.932185 L1446.9723,561.89737" id="Stroke-17"/>
                        <path d="M1452,610.905054 L1424.9347,599.730542 C1413.31547,594.932241 1400.02912,596.531283 1389.88301,603.948868 C1379.45004,611.575431 1373.90907,624.199882 1375.36456,637.030964 L1376.91645,650.722618 C1377.90402,659.431646 1378.64705,668.167677 1379.14319,676.918971 L1381.69911,721.842434 C1382.48917,735.719586 1382.66082,749.623741 1382.21524,763.516155 L1379.62404,844.233748 C1378.82928,869.054126 1369.88707,892.925879 1354.17647,912.175438 C1345.5223,922.779366 1335.01644,931.730247 1323.16795,938.594858 L1293.12465,956" id="Stroke-19"/>
                        <path d="M1266.98061,954 L1228.0166,930.892605 C1222.85241,927.831379 1217.24541,925.583199 1211.38991,924.227731 C1192.71639,919.908274 1177.37928,906.721454 1170.37671,888.969155 L1161.62409,866.781416 C1156.33742,853.379034 1151.67493,839.741172 1147.64957,825.911178 L1139.12778,796.629783 C1135.64887,784.674249 1131.693,772.861641 1127.2684,761.218907 L1115.98138,731.520445 C1109.35567,714.085632 1101.69006,697.060857 1093.02694,680.535157 L1058.34385,614.380808 C1053.87686,605.861391 1049.9304,597.081893 1046.52804,588.090347 C1033.24719,553.007501 998.617091,530.556166 960.989763,532.635645 C959.979302,532.690707 958.971195,532.764514 957.963089,532.854722 L884.025096,539.541855 C857.151293,541.971623 830.929933,530.376921 814.738994,508.901477 C807.048652,498.700905 802.010476,486.768801 800.071992,474.163063 L798.10642,461.376909 C793.943271,434.293318 775.035392,411.734202 749.002463,402.788346 C744.268133,401.161081 739.380702,400.015318 734.414366,399.369801 L699.085897,394.766832 C677.56707,391.963344 657.009241,384.172623 639.070604,372.022614 C629.313408,365.413974 617.782605,361.880618 605.979754,361.880618 C591.776763,361.880618 578.261545,355.793312 568.890632,345.176844 C557.893325,332.71872 541.319635,326.622042 524.821318,328.967459 L516.920168,330.089791 C506.894458,331.51438 496.802797,327.959937 489.91093,320.576911 C482.272406,312.394897 479.696789,300.735761 483.180408,290.122808 L483.569048,288.941898 C493.862094,257.582197 509.306375,228.136787 529.276535,201.800636 C548.606029,176.307992 571.920839,154.065191 598.331808,135.918084 L631.522762,113.111774 C640.950204,106.635517 650.746263,100.706369 660.862656,95.3571311 C696.469061,76.523503 722.572651,43.7790449 732.891607,5" id="Stroke-21"/>
                        <path d="M712.06697,5 C696.859603,37.0239628 672.151457,63.6342533 641.275395,81.2412823 L587.017506,112.180402 C578.757136,116.891152 570.046029,120.770111 561.012462,123.761045 C515.1291,138.955879 480.032823,176.154521 467.674631,222.691483 L462.51999,242.103851 C459.368363,253.972692 456.686302,265.961029 454.480869,278.039575 L451.283344,295.543509 C448.582454,310.335335 452.787369,325.546571 462.711818,336.878848 C472.14434,347.648787 485.795899,353.830988 500.150043,353.830988 L514.358257,353.830988 C529.793934,353.830988 544.447001,360.591927 554.422054,372.317841 C566.375407,386.368084 584.87327,393.120823 603.116932,390.094743 C618.895075,387.477529 635.087472,390.708628 648.631938,399.17884 L679.232615,418.315896 C691.357789,425.896912 705.147041,430.443647 719.421159,431.56598 C746.933759,433.728637 769.623593,453.889616 774.891212,480.859569 C776.968367,491.490095 781.844092,501.382553 789.019399,509.522392 C818.124289,542.539818 861.123171,560.022664 905.124737,556.728302 L969.26,551.928515 C989.383105,550.421919 1008.7589,559.831704 1019.95318,576.546021 C1020.75109,577.738646 1021.50428,578.961731 1022.20804,580.211761 L1059.90518,647.181499 C1072.98008,670.411906 1084.04373,694.709582 1092.97373,719.809762 L1117.15582,787.778821 C1122.6341,803.176332 1127.29916,818.84681 1131.13219,834.729337 L1136.38804,856.498836 C1146.97624,900.358837 1177.92527,936.571045 1219.72022,954" id="Stroke-23"/>
                        <path d="M1178.49307,955 L1175.03233,953.463096 C1149.59968,942.167848 1131.80425,918.655914 1127.93435,891.230795 C1127.28229,886.614221 1126.22815,882.062125 1124.78254,877.627261 L1108.70274,828.277521 C1107.06729,823.256499 1105.51555,818.207341 1104.05108,813.133565 L1090.35548,765.69587 C1082.36452,738.011669 1071.8231,711.118781 1058.868,685.357175 L1037.50453,642.878369 C1034.42818,636.762406 1030.77995,630.946555 1026.60701,625.509361 C1005.88027,598.509792 973.674698,582.665965 939.511771,582.665965 L930.783853,582.665965 C922.92849,582.665965 915.075486,582.471361 907.229557,582.080981 L905.013972,581.970783 C856.177955,579.54292 810.124683,558.645247 776.28248,523.556709 C769.50838,516.533375 764.610275,507.935622 762.036234,498.548902 C756.168885,477.161201 738.608105,460.932855 716.726994,456.676182 C699.301815,453.288194 682.71028,446.554421 667.878006,436.851176 L662.503533,433.336578 C647.324596,423.407077 629.149489,419.027311 611.082863,420.942872 C586.209121,423.580579 561.562951,414.264198 544.736769,395.861209 C532.910097,382.927066 517.110938,374.247252 499.802492,371.174616 L472.839332,366.386885 C458.621385,363.86172 445.686332,356.609784 436.156605,345.819804 C424.844034,333.011098 419.200719,316.211835 420.498941,299.216796 L422.277068,275.934635 C423.33121,262.130635 426.698805,248.600957 432.238357,235.901276 C437.430065,224.001115 440.71512,211.364739 441.974431,198.452871 L444.819671,169.290382 C446.417392,152.902601 453.100699,137.415158 463.941618,124.971042 C479.109944,107.561003 501.136088,97.5576459 524.30245,97.5576459 C544.668379,97.5576459 564.732451,92.666751 582.788465,83.3011325 L583.949908,82.698563 C619.916903,64.041182 653.312216,40.8492895 683.309278,13.6973195 L698.44105,0" id="Stroke-25"/>
                        <path d="M654.829807,0 L640.602338,11.952846 C615.71988,32.8577304 585.861638,47.0673337 553.881352,53.222446 C549.216627,54.1199933 544.518912,54.8452958 539.798809,55.392495 L520.702777,57.6129286 C492.776878,60.8598002 466.737371,73.2743089 446.705802,92.8926307 C428.182404,111.035741 415.736462,134.417668 411.065846,159.8513 L401.339324,212.818308 C400.013783,220.036182 398.85909,227.285693 397.876423,234.558638 L390.973008,285.613378 C387.177838,313.683409 396.634539,341.922168 416.594234,362.125185 C428.835159,374.516259 444.363424,383.196455 461.371582,387.154569 L496.110171,395.239525 C511.294385,398.774642 524.348308,408.360588 532.213182,421.749979 C542.887024,439.924726 562.836115,450.689435 583.975246,449.682916 L594.088237,449.201334 C620.06294,447.965156 645.723049,455.279112 667.095475,470.010136 C677.384026,477.101463 689.112409,481.861042 701.452308,483.953756 C724.428344,487.850939 743.659876,503.456077 752.107987,525.059314 C755.581493,533.94222 760.950816,541.972104 767.844805,548.592395 C796.630832,576.240601 833.84612,593.583418 873.631188,597.891879 L905.878939,601.383643 C910.027586,601.833588 914.19862,602.058561 918.372011,602.058561 C960.068214,602.058561 998.521851,624.423424 1018.96345,660.563178 L1022.50765,666.829605 C1025.07037,671.359524 1027.70849,675.847261 1030.42084,680.290471 L1036.18959,689.739324 C1060.0882,728.883401 1078.08845,771.296612 1089.61771,815.630293 L1094.35784,833.854253 C1097.58509,846.264075 1099.21816,859.030103 1099.21816,871.847688 C1099.21816,898.468285 1106.25943,924.619017 1119.6362,947.677546 L1126.20499,959" id="Stroke-27"/>
                        <path d="M1181.87226,594.656035 C1172.76447,599.555643 1166.76013,608.713942 1165.91684,618.995606 C1164.23968,639.45094 1166.82844,660.029528 1173.51943,679.438971 L1185.4009,713.905259 C1187.39724,719.694638 1188.95898,725.624877 1190.07081,731.645502 C1193.12127,748.14617 1199.51545,763.854496 1208.86469,777.809105 L1234.30834,815.788695 C1242.01104,827.286457 1251.63588,837.382655 1262.76475,845.637097 C1274.64976,854.453809 1291.42963,852.165995 1300.5021,840.490983 C1304.19327,835.740453 1306.19668,829.902947 1306.19668,823.895234 L1306.19668,799.693002 C1306.19668,771.65701 1303.67622,743.676187 1298.66829,716.088601 L1296.35159,703.332483 C1291.61219,677.227457 1279.91209,652.874974 1262.47855,632.826961 C1249.20258,617.558826 1232.92562,605.16425 1214.65468,596.409752 L1209.64674,594.009249 C1200.81926,589.779904 1190.49128,590.020541 1181.87226,594.656035 Z" id="Stroke-29"/>
                        <path d="M1198.25949,666.191064 C1196.17757,657.575932 1199.09743,648.522584 1205.82101,642.736477 C1214.55,635.224524 1227.42871,635.074144 1236.33188,642.380499 C1252.71301,655.826589 1265.15627,673.438677 1272.34471,693.355809 C1279.68144,713.684136 1285.06219,734.663327 1288.41279,756.010244 L1291.81165,777.661445 C1292.46718,781.830967 1292.07056,786.098001 1290.65947,790.076023 C1287.77727,798.19772 1280.96896,804.306909 1272.57303,806.306494 C1264.17827,808.304904 1255.34101,805.921145 1249.0976,799.971734 C1241.78206,793.001384 1236.03883,784.55543 1232.24689,775.196622 L1226.34126,760.620332 C1217.65228,739.171203 1210.56152,717.109981 1205.12782,694.617591 L1198.25949,666.191064 Z" id="Stroke-31"/>
                        <path d="M1261.47084,739.059 C1257.05065,736.296501 1251.40475,736.315334 1247.00368,739.106081 C1242.60141,741.898005 1240.24437,746.952188 1240.96474,752.060514 C1241.33628,754.695892 1242.50464,757.158247 1244.31811,759.129778 L1248.24133,763.394171 C1251.90412,767.37843 1257.55718,768.946239 1262.79332,767.431397 C1268.02706,765.917732 1271.9228,761.588602 1272.81998,756.286065 C1273.75897,750.729289 1271.23349,745.158388 1266.40473,742.141651 L1261.47084,739.059 Z" id="Stroke-33"/>
                        <path d="M1098.04986,959 L1096.38215,955.920671 C1080.9269,927.395559 1072.83719,895.503934 1072.83719,863.105924 C1072.83719,848.920146 1071.28624,834.775395 1068.2091,820.922518 L1067.38586,817.210209 C1060.83413,787.702807 1051.03896,758.999523 1038.17374,731.619636 C1030.08167,714.395556 1020.49644,697.902919 1009.52774,682.329275 C987.896996,651.618039 954.309189,631.319318 916.920078,626.364494 C911.014672,625.582647 905.063268,625.189965 899.105967,625.189965 L876.398401,625.189965 C832.932867,625.189965 790.925109,609.602255 758.093316,581.290481 C751.275031,575.411975 745.6692,568.274543 741.583655,560.275556 C729.67495,536.960804 705.598066,522.272159 679.29088,522.272159 L672.596435,522.272159 C657.307484,522.272159 642.643631,516.235409 631.832975,505.489993 C620.230922,493.960385 604.235492,487.889641 587.854389,488.799257 L572.045309,489.676051 C543.399313,491.265533 516.50595,475.913432 503.455557,450.520397 C496.058173,436.128315 484.007936,424.628012 469.240293,417.864507 L465.580522,416.188283 C422.945307,396.663205 387.089455,365.015393 362.545517,325.243171 C360.028613,321.163968 357.340692,317.190263 354.49001,313.333775 C336.583903,289.111753 329.897715,258.460299 336.103875,229.041982 C337.403607,222.882152 339.254133,216.850091 341.633043,211.016128 L368.321185,145.590646 C375.137111,128.883499 383.853099,113.005087 394.30049,98.2672102 C420.488554,61.3269854 456.783153,32.6225295 498.882907,15.5555221 L524.923542,5" id="Stroke-35"/>
                        <path d="M986.434903,959 L977.008353,941.494411 C965.99853,921.051091 965.750959,896.539513 976.346986,875.880407 C980.044042,868.671534 982.472593,860.884496 983.524179,852.85939 C987.78829,820.341471 983.301365,787.279397 970.520822,757.049506 L963.950767,741.504749 C954.960413,720.240506 935.751283,704.954926 912.922905,700.899568 C903.821734,699.283523 894.484782,699.518073 885.477923,701.591489 L870.015364,705.150775 C819.245684,716.837195 765.874153,706.439623 723.286096,676.563902 C716.065283,671.497637 709.826501,665.173014 704.872729,657.893775 C691.264592,637.90079 668.572968,625.924701 644.301606,625.924701 C631.280566,625.924701 618.366806,628.270194 606.185148,632.848597 C591.494773,638.368716 577.332549,645.191756 563.869418,653.234453 L556.087445,657.88322 C545.572763,664.163279 539.14064,675.470902 539.14064,687.670986 C539.14064,693.565211 537.633996,699.362097 534.760996,704.517492 L500.610385,765.800541 C496.269645,773.588752 487.181442,777.469371 478.516467,775.235288 C472.489888,773.681399 467.562052,769.376246 465.234887,763.632133 L460.121963,751.007515 C450.055266,726.158186 448.151329,698.776897 454.68248,672.785312 C456.381287,666.030292 457.516576,659.146269 458.080094,652.204781 C460.495676,622.404116 457.385717,592.414638 448.904651,563.730427 L447.150436,557.797502 C444.877501,550.110147 441.834739,542.670243 438.06577,535.588025 C425.965456,512.853159 406.818809,494.60522 383.466996,483.553256 L344.095,464.92183 C332.631297,459.496703 320.1891,456.41238 307.506406,455.850634 C293.490367,455.232597 279.510874,457.708265 266.572357,463.104072 L208.041924,487.510103 C195.009094,492.944611 180.956509,495.535208 166.83201,495.108329 C132.028283,494.055202 100.349842,474.86203 83.4395833,444.584057 L73.4966718,426.78059 C53.5306831,391.029408 41.4551267,351.453899 38.0763759,310.693915 C36.6970534,294.053813 36.7760402,277.326927 38.3121576,260.699725 L38.8520975,254.867656 C39.7504255,245.143241 35.3719606,235.680348 27.3612796,230.035918 C19.3517775,224.390316 8.92315591,223.419281 0,227.488712" id="Stroke-43"/>
                        <path d="M963.307479,955 C951.667426,929.515011 949.169763,900.826664 956.229196,873.72827 L956.251581,873.642675 C957.357857,869.395763 958.312153,865.110158 959.11329,860.796412 C965.383367,826.989961 962.06336,792.112988 949.529096,760.079406 L945.350223,749.4035 C939.195604,733.676324 925.173345,722.337937 908.44607,719.563726 C901.337155,718.384158 894.052697,718.809788 887.131106,720.808955 L870.382625,725.649168 C817.162369,741.026929 759.797407,731.293739 714.702804,699.237879 C703.595271,691.340874 693.649387,681.941855 685.151442,671.309332 C673.353517,656.548324 655.43514,647.946627 636.482353,647.946627 C628.374372,647.946627 620.344149,649.524855 612.844091,652.5922 L591.505564,661.32053 C571.246216,669.606816 557.297003,688.417751 555.314188,710.127186 C554.478884,719.271765 551.491114,728.093898 546.593573,735.877168 L511.073739,792.326389 C508.5855,796.280168 505.200695,799.598434 501.190297,802.015023 C487.849005,810.058595 470.539727,806.580864 461.377309,794.017181 L444.732504,771.192667 C439.667667,764.247759 435.423996,756.745897 432.086317,748.835994 C423.066453,727.463076 420.952865,703.828343 426.036552,681.206677 L430.785647,660.081163 C432.601165,652.002416 433.820543,643.801725 434.435534,635.545925 C436.190967,611.955748 432.028588,588.301082 422.323045,566.7089 C411.977771,543.694437 395.6923,523.817669 375.124279,509.100044 L371.973924,506.846437 C349.699952,490.909378 322.959639,482.33465 295.526579,482.33465 C276.798817,482.33465 258.289011,486.331812 241.245994,494.057628 L194.481962,515.254666 C182.482576,520.692871 169.42286,523.420181 156.239439,523.240784 C127.575219,522.849158 100.840797,508.789323 84.3680013,485.439515 L77.5194558,475.730948 C40.5964529,423.393797 14.817505,364.09415 1.76721456,301.476236 L0,293" id="Stroke-45"/>
                        <path d="M0,406 L41.4649991,461.15959 C47.6773855,469.423625 53.6129066,477.88925 59.2633153,486.543573 L83.5567741,523.747552 C88.345955,531.080989 94.5312439,537.409991 101.765087,542.379429 C118.706888,554.016587 140.069109,557.304151 159.752465,551.30332 L173.44964,547.127351 C180.720006,544.911029 187.934998,542.518901 195.087548,539.955655 L246.454901,521.547638 C253.318804,519.087532 260.360608,517.151326 267.521406,515.756602 C301.605293,509.118183 336.920348,517.213444 364.646937,538.020622 C369.774247,541.869592 374.588169,546.112367 379.045111,550.712613 C404.00069,576.470477 416.890832,611.495638 414.553382,647.192377 L413.582587,662.009272 C413.080694,669.675568 411.633926,677.249273 409.275269,684.56513 C401.749245,707.907424 403.706153,733.253902 414.725392,755.179203 C422.424604,770.49773 432.001788,784.808305 443.237807,797.78393 L449.899069,805.477182 C463.618629,821.321954 486.250896,826.165984 505.306298,817.335855 C512.509509,813.999065 518.741924,808.898359 523.423893,802.511928 L565.176361,745.548573 C569.71813,739.35084 573.199564,732.449884 575.479285,725.123479 C580.693778,708.361002 593.279958,694.863821 609.690413,688.431681 C630.16313,680.409086 653.437489,684.579194 669.810244,699.205047 C681.345513,709.509599 694.033013,718.461619 707.622977,725.884132 C753.675693,751.037223 807.164894,759.247344 858.697187,749.076405 L875.737953,745.712658 C886.461477,743.595959 897.587928,744.973102 907.464362,749.638983 C920.667892,755.877737 930.5349,767.466842 934.550036,781.448074 C940.992162,803.877351 940.697625,827.690805 933.704125,849.954825 C925.908304,874.771542 922.102879,900.657157 922.430405,926.655288 L922.835688,959" id="Stroke-47"/>
                        <path d="M0,436 L14.3296006,456.035533 C26.9281006,473.649471 38.2845447,492.11003 48.3188004,511.282547 L54.4300922,522.96194 C63.5027563,540.299526 77.4906148,554.614802 94.6637455,564.137242 C117.586393,576.845929 144.600518,580.149275 169.940107,573.340004 L194.811863,566.6572 C210.651021,562.400673 226.255673,557.32563 241.562185,551.453146 L259.207862,544.682518 C290.380636,532.72209 325.582431,537.896667 351.933105,558.315111 C373.017415,574.651506 386.206304,599.053637 388.267363,625.54129 L389.852339,645.891817 C390.828072,658.435396 389.472888,671.051575 385.855135,683.108024 C379.479877,704.348499 380.202249,727.067926 387.912658,747.865769 C396.711928,771.599268 409.847788,793.51423 426.657965,812.507587 L430.604498,816.965522 C452.283911,841.45899 487.300694,849.428705 517.547228,836.755148 C533.124777,830.226913 546.080338,818.743075 554.37878,804.106949 L574.178611,769.1847 C576.436466,765.202184 578.6354,761.186881 580.775412,757.139961 L599.937718,720.900354 C603.489479,714.183591 609.426365,709.017211 616.595879,706.404746 C626.469869,702.807484 637.509318,704.465597 645.871394,710.802961 L671.061323,729.894681 C680.694916,737.196936 690.824624,743.827046 701.378563,749.739343 C745.598815,774.515018 797.524762,782.02805 847.019627,770.810025 C863.155747,767.153043 880.082588,771.293642 892.665768,781.974185 C906.995369,794.137193 913.642842,813.014623 910.067513,831.402581 C903.74764,863.914946 901.129189,897.031538 902.265187,930.127053 L903.256239,959" id="Stroke-49"/>
                        <path d="M878.714174,959 L876.227232,929.650569 C873.714371,900.013949 877.364086,870.180401 886.946649,842.009026 C890.294773,832.164928 889.301645,821.370179 884.21113,812.296214 C876.167149,797.954402 859.540802,790.659829 843.472868,794.421404 L835.623272,796.259407 C789.339753,807.095182 740.648223,800.006916 699.423411,776.432892 C690.048192,771.072442 681.158345,764.913726 672.85165,758.025906 L665.421453,751.866018 C656.683579,744.620678 645.285584,741.366663 634.016,742.899895 C622.746416,744.433126 612.644317,750.611769 606.182507,759.924862 C605.584039,760.786426 605.019735,761.671434 604.491952,762.576369 L573.762721,815.199742 C563.807882,832.248154 549.124201,846.077717 531.47174,855.034463 C493.114392,874.495253 446.640023,868.175947 414.936514,839.188723 C405.763925,830.802837 397.81537,821.182628 391.320574,810.60708 L389.714841,807.991912 C371.177636,777.810222 359.862107,743.790763 356.643572,708.565115 C355.717595,698.424452 356.833244,688.202907 359.925723,678.497128 C364.495524,664.15766 364.718183,648.794866 360.564247,634.329973 L348.605482,592.685383 C345.346892,581.33853 338.013298,571.577658 327.997199,565.258352 C314.635332,556.82675 297.972464,555.429492 283.380674,561.519048 L271.547964,566.456336 C239.297822,579.91314 205.642221,589.756066 171.203193,595.802251 L144.446472,600.50041 C135.716845,602.033642 126.80697,602.265737 118.007835,601.190833 C93.7427693,598.226351 71.7537683,585.504513 57.161978,565.986285 L46.0102028,551.071269 C32.1229087,532.496659 16.7347313,515.08135 0,499" id="Stroke-51"/>
                        <path d="M0,537 L19.2807291,561.44358 C28.5667464,573.214145 38.4107723,584.53642 48.7821989,595.36933 L50.3231974,596.979421 C66.5572464,613.937016 88.2795576,624.627928 111.654705,627.165113 C124.55012,628.563967 137.59622,627.442067 150.060768,623.860435 L224.271209,602.533767 C228.723506,601.254613 233.194638,600.040003 237.682252,598.892285 L274.628546,589.442974 C290.180977,585.464687 306.702271,588.817479 319.456418,598.539051 C330.942684,607.294802 338.286267,620.394984 339.746036,634.735593 L341.470683,651.666196 C342.670284,663.428546 340.830268,675.301209 336.128398,686.156417 C329.724248,700.939449 328.682396,717.483958 333.181782,732.951162 L335.035925,739.322289 C346.387987,778.345879 366.482184,814.290111 393.802241,844.44177 C399.676635,850.924382 405.864174,857.118305 412.343667,862.998893 L430.009232,879.031741 C450.559019,897.682748 479.00451,905.049033 506.062043,898.727195 C515.523468,896.516253 524.529304,892.692873 532.685177,887.426044 L567.639592,864.850733 C578.490153,857.84355 587.408873,848.240505 593.58464,836.918231 C604.045536,817.737959 622.159627,803.865591 643.446362,798.732545 C664.733097,793.600672 687.205306,797.686925 705.302915,809.980887 C726.38128,824.299199 751.724761,831.029427 777.155357,829.061408 L811.567068,826.397481 L813.980396,826.212062 C826.376664,825.261498 838.42094,830.591698 846.029399,840.394244 C853.637859,850.197963 855.787487,863.158494 851.749576,874.880945 C850.145007,879.544576 849.493997,884.480468 849.838927,889.398757 L854.709141,959" id="Stroke-53"/>
                        <path d="M833.592798,955 L833.592798,897.327707 C833.592798,893.429663 833.030846,889.551548 831.926969,885.812943 C827.451378,870.674464 814.607765,859.458649 798.941431,857.013139 L796.250658,856.59344 C784.572183,854.770445 772.83009,853.385907 761.047942,852.44217 L728.788113,849.855979 C717.60915,848.960308 706.871975,845.122053 697.674572,838.735123 C683.732972,829.050389 666.458536,825.362194 649.750765,828.504076 C633.042993,831.643614 618.310891,841.34945 608.879046,855.426958 C604.025287,862.672044 597.859127,868.954636 590.695119,873.954683 L547.388275,904.177713 C537.389766,911.155505 526.256749,916.364229 514.479314,919.57528 C484.146851,927.844995 451.691457,922.308014 425.858147,904.456731 C409.90907,893.434352 395.254722,880.662836 382.170777,866.383685 L375.989302,859.636845 C356.168998,838.004753 339.696846,813.554345 327.114771,787.091023 C313.55134,758.563202 306.516923,727.397608 306.516923,695.836934 C306.516923,687.222549 307.039998,678.616372 308.086148,670.064122 L311.943238,638.522205 C313.040046,629.552601 309.300766,620.672094 302.106128,615.159733 C295.30733,609.949836 286.344368,608.459786 278.211965,611.186659 L226.356849,628.574866 C214.441576,632.570214 202.370794,636.089591 190.172778,639.123618 L148.651928,649.453141 C135.863686,652.634883 122.619519,653.603239 109.501409,652.316005 C81.1575743,649.535205 54.8612717,636.381505 35.7089492,615.40358 L7.03878116,584" id="Stroke-55"/>
                        <path d="M5.02770083,630 L15.9250553,641.873832 C27.126522,654.077883 40.8504699,663.732691 56.1574515,670.176645 C75.6878211,678.398161 97.1230175,681.110173 118.104403,678.014077 L139.893218,674.799711 C164.534559,671.163789 188.848213,665.593393 212.605507,658.140045 L243.459931,648.460647 C252.415918,645.651444 262.164011,646.911428 270.099218,651.904527 C278.033247,656.897626 283.344602,665.115629 284.614094,674.36059 C284.808584,675.777487 284.906418,677.207265 284.906418,678.637043 L284.906418,709.884894 C284.906418,739.151431 291.059387,768.094775 302.971627,794.86125 C315.955333,824.038792 335.456234,849.895408 359.993847,870.473204 L389.482123,895.203329 C391.159455,896.609687 392.846217,898.004335 394.543588,899.387274 L405.125043,908.012781 C440.858229,937.139971 488.717005,946.965742 533.145678,934.296808 C550.476538,929.355233 566.689963,921.14894 580.901905,910.125246 L623.95618,876.726287 C624.705852,876.146648 625.4402,875.548272 626.161583,874.934674 C644.691211,859.156763 670.783568,855.568852 692.930717,865.755288 C701.049806,869.489573 709.668676,872.04233 718.520935,873.335102 L765.962441,880.266188 C766.233548,880.306002 766.505835,880.348158 766.775764,880.391484 C791.967571,884.478237 810.465374,906.098214 810.465374,931.455988 L810.465374,959" id="Stroke-57"/>
                        <path d="M432.382271,959 L374.560662,916.111472 C368.12648,911.338796 361.872597,906.329652 355.811975,901.095746 C320.894167,870.932013 292.886622,833.685943 273.677172,791.865033 L269.947468,783.746685 C266.69149,776.657323 264.440704,769.152387 263.262283,761.448443 C256.511106,717.322555 216.26801,686.099397 171.536307,690.279732 C167.297525,690.676577 163.081133,691.294672 158.908342,692.132847 C108.038241,702.346631 55.2131389,696.146951 8.14109053,674.436368 L5.02770083,673" id="Stroke-63"/>
                        <path d="M1446.9723,639.936947 C1436.82942,637.472708 1426.12875,639.931072 1418.04356,646.583461 C1409.95837,653.23585 1405.41562,663.317258 1405.7638,673.839338 C1406.85728,706.785175 1414.564,739.164602 1428.41701,769.018682 L1446.9723,809" id="Stroke-65"/>
                    </g>
                </g>
            </g>
        </g>
    </g>
</svg>